ply
format ascii 1.0
comment created by platoply
comment modified by stellply
element vertex 32
property float32 x
property float32 y
property float32 z
element face 60
property list uint8 int32 vertex_indices
end_header
0 -0.525731 0.850651 
0.850651 0 0.525731 
0.850651 0 -0.525731 
-0.850651 0 -0.525731 
-0.850651 0 0.525731 
-0.525731 0.850651 0 
0.525731 0.850651 0 
0.525731 -0.850651 0 
-0.525731 -0.850651 0 
0 -0.525731 -0.850651 
0 0.525731 -0.850651 
0 0.525731 0.850651 
1.67652 0.640373 0 
1.67652 -0.640373 0 
-1.67652 0.640373 0 
-1.67652 -0.640373 0 
0 1.67652 0.640373 
0 1.67652 -0.640373 
0.640373 0 -1.67652 
-0.640373 0 -1.67652 
0 -1.67652 -0.640373 
0 -1.67652 0.640373 
0.640373 0 1.67652 
-0.640373 0 1.67652 
1.03614 1.03614 -1.03614 
1.03614 1.03614 1.03614 
-1.03614 1.03614 -1.03614 
-1.03614 1.03614 1.03614 
1.03614 -1.03614 -1.03614 
1.03614 -1.03614 1.03614 
-1.03614 -1.03614 -1.03614 
-1.03614 -1.03614 1.03614 
3 12 6 2 
3 12 2 1 
3 12 1 6 
3 13 2 7 
3 13 7 1 
3 13 1 2 
3 14 5 4 
3 14 4 3 
3 14 3 5 
3 15 8 3 
3 15 3 4 
3 15 4 8 
3 16 11 5 
3 16 5 6 
3 16 6 11 
3 17 10 6 
3 17 6 5 
3 17 5 10 
3 18 2 10 
3 18 10 9 
3 18 9 2 
3 19 3 9 
3 19 9 10 
3 19 10 3 
3 20 9 8 
3 20 8 7 
3 20 7 9 
3 21 0 7 
3 21 7 8 
3 21 8 0 
3 22 1 0 
3 22 0 11 
3 22 11 1 
3 23 4 11 
3 23 11 0 
3 23 0 4 
3 24 10 2 
3 24 2 6 
3 24 6 10 
3 25 11 6 
3 25 6 1 
3 25 1 11 
3 26 10 5 
3 26 5 3 
3 26 3 10 
3 27 11 4 
3 27 4 5 
3 27 5 11 
3 28 9 7 
3 28 7 2 
3 28 2 9 
3 29 0 1 
3 29 1 7 
3 29 7 0 
3 30 8 9 
3 30 9 3 
3 30 3 8 
3 31 0 8 
3 31 8 4 
3 31 4 0 
